<svg viewBox="0 0 45 55" fill="none" xmlns="http://www.w3.org/2000/svg">
<path d="M22.4367 54.75C18.8367 54.75 15.7117 54.25 13.0617 53.25C10.4117 52.2 8.21172 50.775 6.46172 48.975C4.76172 47.175 3.46172 45.075 2.56172 42.675C1.66172 40.275 1.13672 37.7 0.986719 34.95C0.936719 33.6 0.886719 32.075 0.836719 30.375C0.836719 28.625 0.836719 26.875 0.836719 25.125C0.886719 23.325 0.936719 21.725 0.986719 20.325C1.13672 17.575 1.66172 15.025 2.56172 12.675C3.51172 10.275 4.86172 8.2 6.61172 6.45C8.41172 4.65 10.6117 3.25 13.2117 2.25C15.8617 1.25 18.9367 0.749997 22.4367 0.749997C25.9867 0.749997 29.0617 1.25 31.6617 2.25C34.2617 3.25 36.4367 4.65 38.1867 6.45C39.9867 8.2 41.3617 10.275 42.3117 12.675C43.2617 15.025 43.7867 17.575 43.8867 20.325C43.9867 21.725 44.0367 23.325 44.0367 25.125C44.0867 26.875 44.0867 28.625 44.0367 30.375C44.0367 32.075 43.9867 33.6 43.8867 34.95C43.7867 37.7 43.2617 40.275 42.3117 42.675C41.4117 45.075 40.0867 47.175 38.3367 48.975C36.6367 50.775 34.4617 52.2 31.8117 53.25C29.2117 54.25 26.0867 54.75 22.4367 54.75ZM22.4367 43.875C25.0367 43.875 26.9117 43.05 28.0617 41.4C29.2617 39.7 29.8867 37.425 29.9367 34.575C30.0367 33.125 30.0867 31.6 30.0867 30C30.1367 28.4 30.1367 26.8 30.0867 25.2C30.0867 23.6 30.0367 22.125 29.9367 20.775C29.8867 18.025 29.2617 15.8 28.0617 14.1C26.9117 12.4 25.0367 11.525 22.4367 11.475C19.8367 11.525 17.9617 12.4 16.8117 14.1C15.6617 15.8 15.0367 18.025 14.9367 20.775C14.8867 22.125 14.8367 23.6 14.7867 25.2C14.7867 26.8 14.7867 28.4 14.7867 30C14.8367 31.6 14.8867 33.125 14.9367 34.575C15.0367 37.425 15.6867 39.7 16.8867 41.4C18.0867 43.05 19.9367 43.875 22.4367 43.875Z" fill="currentColor"/>
</svg>
