<svg width="143" height="120" viewBox="0 0 143 120" fill="none" xmlns="http://www.w3.org/2000/svg">
<path d="M112.33 3.27865C112.028 5.84183 112.292 9.12129 112.706 11.1192C110.106 11.8883 108.619 14.6254 109.388 17.2252C110.157 19.8249 112.894 21.3123 115.494 20.5432C115.819 20.4471 116.144 20.3509 116.421 20.0923C118.163 27.1752 114.11 34.3821 106.961 36.4971C99.8116 38.6121 92.4903 34.77 90.0984 27.8794C92.1145 26.9295 93.325 24.451 92.6521 22.1762C91.883 19.5765 89.1458 18.0891 86.5461 18.8582L86.0586 19.0024C84.4473 15.945 81.1218 11.2743 79.0095 11.8992C76.8973 12.5241 76.6001 18.0898 76.9596 21.6942C76.6346 21.7904 76.2616 21.724 75.9366 21.8201C73.3369 22.5892 71.8495 25.3264 72.6186 27.9262C73.2915 30.2009 75.4932 31.67 77.9122 31.4845C79.6541 38.5674 75.6015 45.7743 68.4523 47.8893C61.303 50.0043 53.9337 45.9998 51.5418 39.1091C53.5099 37.9968 54.4435 35.7769 53.7705 33.5021C53.0014 30.9024 50.2642 29.415 47.6645 30.1841L47.177 30.3283C45.5657 27.2709 42.2402 22.6002 40.1279 23.225C38.0157 23.8499 37.7185 29.4157 38.078 33.0201C37.753 33.1162 37.38 33.0499 37.055 33.146C34.4553 33.9151 32.9679 36.6523 33.737 39.252C34.458 41.6893 36.8221 43.1103 39.3555 42.7143C41.0975 49.7972 36.8824 57.0521 29.8956 59.119C22.7464 61.234 15.4251 57.392 13.0332 50.5014C13.3582 50.4052 13.7312 50.4716 14.0562 50.3754C16.6559 49.6063 18.1433 46.8692 17.3742 44.2694C16.6051 41.6697 13.868 40.1823 11.2682 40.9514L10.9433 41.0475C9.99339 39.0314 8.68878 36.4134 7.36589 34.3309C6.34969 32.6878 4.00857 33.7338 4.58539 35.6836L27.0814 111.726L138.22 78.847L115.82 3.1297C114.918 1.27604 112.662 1.41348 112.33 3.27865Z" fill="#FFB636"/>
<path d="M131.996 55.4195L18.9077 88.8752C17.7703 89.2116 16.7176 88.6396 16.3811 87.5022L14.7467 81.9778C14.4103 80.8404 14.9823 79.7876 16.1197 79.4511L129.046 46.0436C130.183 45.7071 131.236 46.2792 131.572 47.4165L133.207 52.941C133.706 54.0303 133.133 55.083 131.996 55.4195V55.4195ZM142.118 82.4649L140.483 76.9404C140.147 75.8031 139.094 75.231 137.957 75.5675L24.8682 109.023C23.7308 109.36 23.1587 110.412 23.4952 111.55L25.1295 117.074C25.466 118.212 26.5188 118.784 27.6562 118.447L140.582 85.0396C141.882 84.655 142.454 83.6023 142.118 82.4649Z" fill="#FFD469"/>
<path d="M124.673 68.8949C125.539 71.8196 123.937 74.7673 121.012 75.6325C118.087 76.4978 115.14 74.896 114.275 71.9713C113.409 69.0466 115.011 66.0988 117.936 65.2336C120.861 64.3684 123.808 65.9702 124.673 68.8949ZM76.99 77.3469C74.0653 78.2121 72.4635 81.1598 73.3287 84.0845C74.194 87.0092 77.1417 88.611 80.0664 87.7458C82.9911 86.8806 84.5929 83.9328 83.7277 81.0081C82.8624 78.0834 79.9147 76.4816 76.99 77.3469ZM36.0442 89.4601C33.1195 90.3253 31.5177 93.2731 32.3829 96.1978C33.2482 99.1225 36.1959 100.724 39.1206 99.859C42.0453 98.9938 43.599 95.8836 42.7819 93.1214C41.9647 90.3592 38.9689 88.5949 36.0442 89.4601Z" fill="#FFC7EF"/>
</svg>
