<svg viewBox="0 0 156 156" fill="none" xmlns="http://www.w3.org/2000/svg">
<circle cx="77.814" cy="77.814" r="77.314" fill="#FFDBAC" stroke="black"/>
<path d="M63.4763 72.7494L34.1565 72.7494C32.553 72.7494 31.6015 74.5418 32.4999 75.87L40.3841 87.5249C40.7561 88.0748 41.3768 88.4043 42.0407 88.4043L59.3628 88.4043C60.2107 88.4043 60.9665 87.8695 61.2488 87.0699L65.3622 75.415C65.8215 74.1138 64.8562 72.7494 63.4763 72.7494Z" fill="black" fill-opacity="0.24" stroke="black"/>
<path d="M90.3099 72.7494L119.63 72.7494C121.233 72.7494 122.185 74.5418 121.286 75.87L113.402 87.5249C113.03 88.0748 112.409 88.4043 111.745 88.4043L94.4234 88.4043C93.5754 88.4043 92.8196 87.8695 92.5374 87.0699L88.4239 75.415C87.9646 74.1138 88.93 72.7494 90.3099 72.7494Z" fill="black" fill-opacity="0.24" stroke="black"/>
<path d="M75.9722 80.116L82.5041 100.528C82.9171 101.819 81.9543 103.138 80.5993 103.138L75.9722 103.138" stroke="black"/>
<path d="M65.3822 74.1305L88.4041 74.1305" stroke="black"/>
<path d="M34.9933 79.6557L6.90662 71.3678" stroke="black"/>
<path d="M118.793 79.6559L153.326 70.9076" stroke="black"/>
<path d="M19.526 59.0588L3.68355 74.5907L2.94685 75.1432C2.49154 75.4847 1.8418 75.1598 1.8418 74.5907L1.8418 74.0833C1.8418 69.5253 2.36479 64.9823 3.4005 60.5435C4.50591 55.806 6.18732 51.2218 8.40718 46.893L10.4346 42.9395C12.9864 37.9636 16.0722 33.2803 19.6374 28.9722L19.9142 28.6378C23.5088 24.2943 27.5925 20.38 32.0842 16.9724C36.4654 13.6488 41.2066 10.8287 46.2184 8.56531L47.152 8.14367C51.0098 6.40143 55.0161 5.00862 59.1227 3.98197C63.592 2.86464 68.1597 2.18613 72.7608 1.95607L73.8322 1.9025C80.7561 1.55631 87.6958 2.09194 94.4846 3.49651L97.6128 4.14373L101.079 5.37382C108.251 7.91864 115.046 11.4205 121.281 15.7845C127.271 19.9776 132.691 24.9305 137.407 30.5189L140.08 33.687C141.844 35.7781 143.354 38.0714 144.578 40.5186L145.085 41.5335C148.717 48.7979 151.258 56.5584 152.625 64.5643L153.786 71.3676C154.162 72.6215 152.633 73.5617 151.684 72.6596L130.974 52.9682C128.581 50.693 125.122 49.9361 121.998 51.0039L97.1367 59.5007C93.0497 60.8975 88.5589 60.4648 84.8138 58.3134L76.5376 53.559C71.9109 50.9011 66.2205 50.9011 61.5938 53.559L54.4052 57.6886C50.0459 60.1929 44.7218 60.3468 40.2251 58.0984L36.7353 56.3535C31.0093 53.4905 24.0974 54.5771 19.526 59.0588Z" fill="#3B3024" stroke="#3B3024" stroke-width="3"/>
<path d="M92.0876 121.556L65.3822 124.318L72.2888 133.527L85.181 133.527L92.0876 121.556Z" fill="white" stroke="black"/>
</svg>
