<svg viewBox="0 0 156 156" fill="none" xmlns="http://www.w3.org/2000/svg">
<circle cx="77.814" cy="77.814" r="76.314" fill="#FFDBAC" stroke="black" stroke-width="3"/>
<path d="M63.4763 72.7491H34.1565C32.553 72.7491 31.6015 74.5416 32.4999 75.8698L40.3841 87.5246C40.7561 88.0746 41.3768 88.404 42.0407 88.404H59.3628C60.2107 88.404 60.9665 87.8693 61.2488 87.0697L65.3622 75.4148C65.8215 74.1135 64.8562 72.7491 63.4763 72.7491Z" fill="black" fill-opacity="0.24" stroke="black"/>
<path d="M36.1059 86.0131L31.659 79.8558C31.2055 79.228 31.3244 78.3548 31.9292 77.871C32.589 77.3431 33.5584 77.4876 34.0355 78.185L38.3244 84.4534C38.7653 85.0977 38.5724 85.9803 37.9029 86.382C37.299 86.7443 36.5183 86.5841 36.1059 86.0131Z" fill="black" stroke="black"/>
<path d="M90.31 72.7491H119.63C121.233 72.7491 122.185 74.5416 121.286 75.8698L113.402 87.5246C113.03 88.0746 112.41 88.404 111.746 88.404H94.4235C93.5755 88.404 92.8197 87.8693 92.5375 87.0697L88.424 75.4148C87.9647 74.1135 88.9301 72.7491 90.31 72.7491Z" fill="black" fill-opacity="0.24" stroke="black"/>
<path d="M75.9722 80.1162L82.5041 100.529C82.9171 101.819 81.9543 103.138 80.5993 103.138H75.9722" stroke="black"/>
<path d="M65.3822 74.1305H88.4041" stroke="black"/>
<path d="M19.526 59.0591L3.68355 74.5909L2.94685 75.1435C2.49154 75.4849 1.8418 75.1601 1.8418 74.5909V74.0836C1.8418 69.5255 2.36479 64.9826 3.40051 60.5438C4.50592 55.8063 6.18732 51.222 8.40718 46.8933L10.4346 42.9397C12.9864 37.9639 16.0722 33.2805 19.6374 28.9724L19.9142 28.638C23.5088 24.2945 27.5925 20.3802 32.0842 16.9727C36.4654 13.6491 41.2066 10.8289 46.2184 8.56555L47.152 8.14391C51.0098 6.40167 55.0161 5.00886 59.1227 3.98221C63.592 2.86488 68.1597 2.18637 72.7608 1.95632L73.8322 1.90275C80.7561 1.55655 87.6959 2.09218 94.4846 3.49675L97.6128 4.14397L101.079 5.37407C108.251 7.91889 115.046 11.4208 121.281 15.7848C127.271 19.9779 132.691 24.9307 137.407 30.5192L140.08 33.6872C141.844 35.7784 143.354 38.0716 144.578 40.5189L145.085 41.5338C148.717 48.7981 151.258 56.5586 152.625 64.5646L153.786 71.3679C154.162 72.6218 152.633 73.5619 151.684 72.6599L130.974 52.9684C128.581 50.6933 125.122 49.9363 121.998 51.0042L97.1367 59.5009C93.0497 60.8978 88.5589 60.4651 84.8138 58.3136L76.5376 53.5592C71.9109 50.9013 66.2205 50.9013 61.5938 53.5592L54.4052 57.6889C50.0459 60.1932 44.7218 60.347 40.2251 58.0987L36.7353 56.3538C31.0093 53.4908 24.0974 54.5773 19.526 59.0591Z" fill="#3B3024" stroke="black"/>
<path d="M92.0876 121.556L65.3822 124.318L72.2888 133.527H85.181L92.0876 121.556Z" fill="white" stroke="black"/>
<path fill-rule="evenodd" clip-rule="evenodd" d="M49.3828 122.445L71.1224 111.772C71.5919 111.542 72.0818 111.355 72.5858 111.216L75.1672 110.498C78.4139 109.597 81.8357 109.528 85.1158 110.3L87.0054 110.745C87.6276 110.891 88.2253 111.127 88.7803 111.444L107.164 121.949C108.539 120.989 110.054 120.243 111.658 119.737L114.649 118.793L129.532 113.265C130.352 112.96 131.195 112.721 132.053 112.55L135.013 111.958C136.765 111.607 138.571 111.634 140.312 112.035L142.42 112.522C143.229 112.709 143.974 113.109 144.577 113.681C145.107 114.237 145.15 115.097 144.678 115.704L142.275 118.793L134.649 128.927C133.96 129.842 133.178 130.684 132.316 131.438L122.78 139.776C121.966 140.488 121.083 141.119 120.146 141.659L111.886 146.419L101.802 150.901C100.246 151.592 98.5932 152.04 96.9008 152.228L80.3766 154.064C79.2848 154.186 78.1835 154.198 77.0892 154.101L65.0185 153.036C63.7305 152.923 62.4603 152.659 61.2337 152.25L45.8474 147.121C44.4497 146.655 43.1204 146.005 41.8945 145.188L29.9127 137.2C29.0045 136.595 28.1583 135.901 27.3865 135.129L20.0021 127.745C18.6489 126.391 17.5399 124.813 16.7249 123.082C16.3763 122.341 15.9731 121.627 15.5191 120.946L13.5056 117.926C13.4611 117.859 13.4256 117.786 13.4002 117.71C13.198 117.104 13.6724 116.485 14.3108 116.522L20.8055 116.904L35.6997 117.672C37.6686 117.773 39.6036 118.225 41.4137 119.006L49.3828 122.445ZM52.0226 123.584L52.3525 123.726C53.9685 124.423 55.4632 125.374 56.7803 126.541L71.8059 139.859C73.8968 141.712 76.594 142.736 79.388 142.736C82.227 142.736 84.9644 141.679 87.0673 139.772L103.598 124.779L105.386 123.333L90.1462 117.757C88.6803 117.221 87.1725 116.807 85.6383 116.519C82.2913 115.891 78.8585 115.873 75.5049 116.465L72.7491 116.951L52.0226 123.584Z" fill="#3B3024" stroke="#3B3024"/>
<path d="M53.5851 71.3679H40.6815C40.5743 71.3679 40.4686 71.3929 40.3727 71.4408C39.7208 71.7668 39.9527 72.7492 40.6815 72.7492H53.5851C54.2004 72.7492 54.5086 72.0053 54.0735 71.5702C53.9439 71.4407 53.7683 71.3679 53.5851 71.3679Z" fill="black" stroke="black"/>
<path d="M53.8712 77.3535L54.0657 77.4507C55.0752 77.9555 55.713 78.9874 55.713 80.1161V80.1161" stroke="black"/>
<path d="M46.2216 84.5837L46.0158 84.5136C44.9474 84.1495 44.1764 83.213 44.0243 82.0945V82.0945" stroke="black"/>
<path d="M49.7273 76.4326L50.4374 76.764C52.8132 77.8727 54.3317 80.2571 54.3317 82.8787V82.8787" stroke="black"/>
<path d="M45.686 78.2744L45.7709 79.0535C46.0546 81.6597 47.8223 83.8657 50.3041 84.7108V84.7108" stroke="black"/>
<circle cx="50.1877" cy="80.5766" r="1.38131" fill="black"/>
</svg>
