<svg viewBox="0 0 156 156" fill="none" xmlns="http://www.w3.org/2000/svg">
<circle cx="77.814" cy="77.814" r="76.314" fill="#FFDBAC" stroke="black" stroke-width="3"/>
<path d="M63.4763 72.7491H34.1565C32.553 72.7491 31.6015 74.5416 32.4999 75.8698L40.3841 87.5246C40.7561 88.0746 41.3768 88.404 42.0407 88.404H59.3628C60.2107 88.404 60.9665 87.8693 61.2488 87.0697L65.3622 75.4148C65.8215 74.1135 64.8562 72.7491 63.4763 72.7491Z" fill="black" fill-opacity="0.24" stroke="black"/>
<path d="M90.3099 72.7491H119.63C121.233 72.7491 122.185 74.5416 121.286 75.8698L113.402 87.5246C113.03 88.0746 112.409 88.404 111.745 88.404H94.4234C93.5754 88.404 92.8196 87.8693 92.5374 87.0697L88.4239 75.4148C87.9646 74.1135 88.93 72.7491 90.3099 72.7491Z" fill="black" fill-opacity="0.24" stroke="black"/>
<path d="M75.9722 80.1161L82.5041 100.528C82.9171 101.819 81.9543 103.138 80.5993 103.138H75.9722" stroke="black"/>
<path d="M65.3821 74.1304H88.404" stroke="black"/>
<path d="M19.526 59.059L3.68355 74.5908L2.94685 75.1433C2.49154 75.4848 1.8418 75.16 1.8418 74.5908V74.0834C1.8418 69.5254 2.36479 64.9824 3.40051 60.5436C4.50592 55.8062 6.18732 51.2219 8.40718 46.8932L10.4346 42.9396C12.9864 37.9637 16.0722 33.2804 19.6374 28.9723L19.9142 28.6379C23.5088 24.2944 27.5925 20.3801 32.0842 16.9726C36.4654 13.6489 41.2066 10.8288 46.2184 8.56543L47.152 8.14379C51.0098 6.40155 55.0161 5.00874 59.1227 3.98209C63.592 2.86476 68.1597 2.18625 72.7608 1.95619L73.8322 1.90262C80.7561 1.55643 87.6959 2.09206 94.4846 3.49663L97.6128 4.14385L101.079 5.37394C108.251 7.91876 115.046 11.4207 121.281 15.7846C127.271 19.9778 132.691 24.9306 137.407 30.5191L140.08 33.6871C141.844 35.7783 143.354 38.0715 144.578 40.5187L145.085 41.5336C148.717 48.798 151.258 56.5585 152.625 64.5645L153.786 71.3678C154.162 72.6217 152.633 73.5618 151.684 72.6597L130.974 52.9683C128.581 50.6931 125.122 49.9362 121.998 51.004L97.1367 59.5008C93.0497 60.8977 88.5589 60.465 84.8138 58.3135L76.5376 53.5591C71.9109 50.9012 66.2205 50.9012 61.5938 53.5591L54.4052 57.6887C50.0459 60.193 44.7218 60.3469 40.2251 58.0986L36.7353 56.3537C31.0093 53.4907 24.0974 54.5772 19.526 59.059Z" fill="#3B3024" stroke="black"/>
<path d="M92.0875 121.556L65.3821 124.318L72.2886 133.527H85.1809L92.0875 121.556Z" fill="white" stroke="black"/>
<path fill-rule="evenodd" clip-rule="evenodd" d="M49.3828 122.444L71.1224 111.772C71.5919 111.542 72.0818 111.355 72.5858 111.215L75.1672 110.498C78.4139 109.596 81.8357 109.528 85.1158 110.3L87.0054 110.745C87.6276 110.891 88.2253 111.126 88.7803 111.444L107.164 121.948C108.539 120.989 110.054 120.243 111.658 119.737L114.649 118.793L129.532 113.265C130.352 112.96 131.195 112.721 132.053 112.549L135.013 111.957C136.765 111.607 138.571 111.634 140.312 112.035L142.42 112.522C143.229 112.709 143.974 113.109 144.577 113.681C145.107 114.237 145.15 115.097 144.678 115.703L142.275 118.793L134.649 128.927C133.96 129.842 133.178 130.684 132.316 131.438L122.78 139.776C121.966 140.488 121.083 141.119 120.146 141.659L111.886 146.419L101.802 150.901C100.246 151.592 98.5932 152.04 96.9008 152.228L80.3766 154.064C79.2848 154.185 78.1835 154.198 77.0892 154.101L65.0185 153.036C63.7305 152.923 62.4603 152.659 61.2337 152.25L45.8474 147.121C44.4497 146.655 43.1204 146.005 41.8945 145.188L29.9127 137.2C29.0045 136.594 28.1583 135.901 27.3865 135.129L20.0021 127.744C18.6489 126.391 17.5399 124.813 16.7249 123.082C16.3763 122.341 15.9731 121.627 15.5191 120.946L13.5056 117.926C13.4611 117.859 13.4256 117.786 13.4002 117.71C13.198 117.103 13.6724 116.484 14.3108 116.522L20.8055 116.904L35.6997 117.672C37.6686 117.773 39.6036 118.225 41.4137 119.006L49.3828 122.444ZM52.0226 123.584L52.3525 123.726C53.9685 124.423 55.4632 125.373 56.7803 126.541L71.8059 139.859C73.8968 141.712 76.594 142.736 79.388 142.736C82.227 142.736 84.9644 141.679 87.0673 139.772L103.598 124.779L105.386 123.332L90.1462 117.757C88.6803 117.221 87.1725 116.807 85.6383 116.519C82.2913 115.891 78.8585 115.873 75.5049 116.465L72.7491 116.951L52.0226 123.584Z" fill="#3B3024" stroke="#3B3024"/>
</svg>
