<svg viewBox="0 0 385 384" fill="none" xmlns="http://www.w3.org/2000/svg">
<rect width="384" height="384" rx="4" fill="#FFD76F"/>
<rect x="246" width="19" height="384" fill="white"/>
<rect y="266" width="19" height="384" transform="rotate(-90 0 266)" fill="white"/>
<rect x="118" width="19" height="384" fill="white"/>
<rect x="0.017334" y="138" width="19" height="384" transform="rotate(-90 0.017334 138)" fill="white"/>
<path d="M304.084 351C303.634 351 303.234 350.85 302.884 350.55C302.584 350.2 302.434 349.825 302.434 349.425C302.434 349.275 302.459 349.125 302.509 348.975C302.559 348.825 302.634 348.675 302.734 348.525L319.084 324.225L303.934 300.975C303.784 300.675 303.709 300.375 303.709 300.075C303.709 299.675 303.859 299.325 304.159 299.025C304.459 298.675 304.834 298.5 305.284 298.5H316.159C316.909 298.5 317.484 298.7 317.884 299.1C318.284 299.45 318.559 299.775 318.709 300.075L327.709 313.725L336.784 300.075C336.984 299.775 337.284 299.45 337.684 299.1C338.084 298.7 338.659 298.5 339.409 298.5H349.684C350.134 298.5 350.509 298.675 350.809 299.025C351.159 299.325 351.334 299.675 351.334 300.075C351.334 300.425 351.234 300.725 351.034 300.975L335.809 324.15L352.309 348.525C352.409 348.675 352.459 348.825 352.459 348.975C352.509 349.125 352.534 349.275 352.534 349.425C352.534 349.825 352.384 350.2 352.084 350.55C351.784 350.85 351.409 351 350.959 351H339.784C339.034 351 338.434 350.825 337.984 350.475C337.584 350.075 337.309 349.75 337.159 349.5L327.184 335.1L317.434 349.5C317.284 349.75 317.009 350.075 316.609 350.475C316.209 350.825 315.634 351 314.884 351H304.084Z" fill="#009CCD"/>
<path d="M327.437 218.75C323.837 218.75 320.712 218.25 318.062 217.25C315.412 216.2 313.212 214.775 311.462 212.975C309.762 211.175 308.462 209.075 307.562 206.675C306.662 204.275 306.137 201.7 305.987 198.95C305.937 197.6 305.887 196.075 305.837 194.375C305.837 192.625 305.837 190.875 305.837 189.125C305.887 187.325 305.937 185.725 305.987 184.325C306.137 181.575 306.662 179.025 307.562 176.675C308.512 174.275 309.862 172.2 311.612 170.45C313.412 168.65 315.612 167.25 318.212 166.25C320.862 165.25 323.937 164.75 327.437 164.75C330.987 164.75 334.062 165.25 336.662 166.25C339.262 167.25 341.437 168.65 343.187 170.45C344.987 172.2 346.362 174.275 347.312 176.675C348.262 179.025 348.787 181.575 348.887 184.325C348.987 185.725 349.037 187.325 349.037 189.125C349.087 190.875 349.087 192.625 349.037 194.375C349.037 196.075 348.987 197.6 348.887 198.95C348.787 201.7 348.262 204.275 347.312 206.675C346.412 209.075 345.087 211.175 343.337 212.975C341.637 214.775 339.462 216.2 336.812 217.25C334.212 218.25 331.087 218.75 327.437 218.75ZM327.437 207.875C330.037 207.875 331.912 207.05 333.062 205.4C334.262 203.7 334.887 201.425 334.937 198.575C335.037 197.125 335.087 195.6 335.087 194C335.137 192.4 335.137 190.8 335.087 189.2C335.087 187.6 335.037 186.125 334.937 184.775C334.887 182.025 334.262 179.8 333.062 178.1C331.912 176.4 330.037 175.525 327.437 175.475C324.837 175.525 322.962 176.4 321.812 178.1C320.662 179.8 320.037 182.025 319.937 184.775C319.887 186.125 319.837 187.6 319.787 189.2C319.787 190.8 319.787 192.4 319.787 194C319.837 195.6 319.887 197.125 319.937 198.575C320.037 201.425 320.687 203.7 321.887 205.4C323.087 207.05 324.937 207.875 327.437 207.875Z" fill="#FF5A5A"/>
<path d="M191.437 351.75C187.837 351.75 184.712 351.25 182.062 350.25C179.412 349.2 177.212 347.775 175.462 345.975C173.762 344.175 172.462 342.075 171.562 339.675C170.662 337.275 170.137 334.7 169.987 331.95C169.937 330.6 169.887 329.075 169.837 327.375C169.837 325.625 169.837 323.875 169.837 322.125C169.887 320.325 169.937 318.725 169.987 317.325C170.137 314.575 170.662 312.025 171.562 309.675C172.512 307.275 173.862 305.2 175.612 303.45C177.412 301.65 179.612 300.25 182.212 299.25C184.862 298.25 187.937 297.75 191.437 297.75C194.987 297.75 198.062 298.25 200.662 299.25C203.262 300.25 205.437 301.65 207.187 303.45C208.987 305.2 210.362 307.275 211.312 309.675C212.262 312.025 212.787 314.575 212.887 317.325C212.987 318.725 213.037 320.325 213.037 322.125C213.087 323.875 213.087 325.625 213.037 327.375C213.037 329.075 212.987 330.6 212.887 331.95C212.787 334.7 212.262 337.275 211.312 339.675C210.412 342.075 209.087 344.175 207.337 345.975C205.637 347.775 203.462 349.2 200.812 350.25C198.212 351.25 195.087 351.75 191.437 351.75ZM191.437 340.875C194.037 340.875 195.912 340.05 197.062 338.4C198.262 336.7 198.887 334.425 198.937 331.575C199.037 330.125 199.087 328.6 199.087 327C199.137 325.4 199.137 323.8 199.087 322.2C199.087 320.6 199.037 319.125 198.937 317.775C198.887 315.025 198.262 312.8 197.062 311.1C195.912 309.4 194.037 308.525 191.437 308.475C188.837 308.525 186.962 309.4 185.812 311.1C184.662 312.8 184.037 315.025 183.937 317.775C183.887 319.125 183.837 320.6 183.787 322.2C183.787 323.8 183.787 325.4 183.787 327C183.837 328.6 183.887 330.125 183.937 331.575C184.037 334.425 184.687 336.7 185.887 338.4C187.087 340.05 188.937 340.875 191.437 340.875Z" fill="#FF5A5A"/>
<path d="M63.4367 218.75C59.8367 218.75 56.7117 218.25 54.0617 217.25C51.4117 216.2 49.2117 214.775 47.4617 212.975C45.7617 211.175 44.4617 209.075 43.5617 206.675C42.6617 204.275 42.1367 201.7 41.9867 198.95C41.9367 197.6 41.8867 196.075 41.8367 194.375C41.8367 192.625 41.8367 190.875 41.8367 189.125C41.8867 187.325 41.9367 185.725 41.9867 184.325C42.1367 181.575 42.6617 179.025 43.5617 176.675C44.5117 174.275 45.8617 172.2 47.6117 170.45C49.4117 168.65 51.6117 167.25 54.2117 166.25C56.8617 165.25 59.9367 164.75 63.4367 164.75C66.9867 164.75 70.0617 165.25 72.6617 166.25C75.2617 167.25 77.4367 168.65 79.1867 170.45C80.9867 172.2 82.3617 174.275 83.3117 176.675C84.2617 179.025 84.7867 181.575 84.8867 184.325C84.9867 185.725 85.0367 187.325 85.0367 189.125C85.0867 190.875 85.0867 192.625 85.0367 194.375C85.0367 196.075 84.9867 197.6 84.8867 198.95C84.7867 201.7 84.2617 204.275 83.3117 206.675C82.4117 209.075 81.0867 211.175 79.3367 212.975C77.6367 214.775 75.4617 216.2 72.8117 217.25C70.2117 218.25 67.0867 218.75 63.4367 218.75ZM63.4367 207.875C66.0367 207.875 67.9117 207.05 69.0617 205.4C70.2617 203.7 70.8867 201.425 70.9367 198.575C71.0367 197.125 71.0867 195.6 71.0867 194C71.1367 192.4 71.1367 190.8 71.0867 189.2C71.0867 187.6 71.0367 186.125 70.9367 184.775C70.8867 182.025 70.2617 179.8 69.0617 178.1C67.9117 176.4 66.0367 175.525 63.4367 175.475C60.8367 175.525 58.9617 176.4 57.8117 178.1C56.6617 179.8 56.0367 182.025 55.9367 184.775C55.8867 186.125 55.8367 187.6 55.7867 189.2C55.7867 190.8 55.7867 192.4 55.7867 194C55.8367 195.6 55.8867 197.125 55.9367 198.575C56.0367 201.425 56.6867 203.7 57.8867 205.4C59.0867 207.05 60.9367 207.875 63.4367 207.875Z" fill="#FF5A5A"/>
<path d="M168.084 218C167.634 218 167.234 217.85 166.884 217.55C166.584 217.2 166.434 216.825 166.434 216.425C166.434 216.275 166.459 216.125 166.509 215.975C166.559 215.825 166.634 215.675 166.734 215.525L183.084 191.225L167.934 167.975C167.784 167.675 167.709 167.375 167.709 167.075C167.709 166.675 167.859 166.325 168.159 166.025C168.459 165.675 168.834 165.5 169.284 165.5H180.159C180.909 165.5 181.484 165.7 181.884 166.1C182.284 166.45 182.559 166.775 182.709 167.075L191.709 180.725L200.784 167.075C200.984 166.775 201.284 166.45 201.684 166.1C202.084 165.7 202.659 165.5 203.409 165.5H213.684C214.134 165.5 214.509 165.675 214.809 166.025C215.159 166.325 215.334 166.675 215.334 167.075C215.334 167.425 215.234 167.725 215.034 167.975L199.809 191.15L216.309 215.525C216.409 215.675 216.459 215.825 216.459 215.975C216.509 216.125 216.534 216.275 216.534 216.425C216.534 216.825 216.384 217.2 216.084 217.55C215.784 217.85 215.409 218 214.959 218H203.784C203.034 218 202.434 217.825 201.984 217.475C201.584 217.075 201.309 216.75 201.159 216.5L191.184 202.1L181.434 216.5C181.284 216.75 181.009 217.075 180.609 217.475C180.209 217.825 179.634 218 178.884 218H168.084Z" fill="#009CCD"/>
<path d="M38.0839 351C37.6339 351 37.2339 350.85 36.8839 350.55C36.5839 350.2 36.4339 349.825 36.4339 349.425C36.4339 349.275 36.4589 349.125 36.5089 348.975C36.5589 348.825 36.6339 348.675 36.7339 348.525L53.0839 324.225L37.9339 300.975C37.7839 300.675 37.7089 300.375 37.7089 300.075C37.7089 299.675 37.8589 299.325 38.1589 299.025C38.4589 298.675 38.8339 298.5 39.2839 298.5H50.1589C50.9089 298.5 51.4839 298.7 51.8839 299.1C52.2839 299.45 52.5589 299.775 52.7089 300.075L61.7089 313.725L70.7839 300.075C70.9839 299.775 71.2839 299.45 71.6839 299.1C72.0839 298.7 72.6589 298.5 73.4089 298.5H83.6839C84.1339 298.5 84.5089 298.675 84.8089 299.025C85.1589 299.325 85.3339 299.675 85.3339 300.075C85.3339 300.425 85.2339 300.725 85.0339 300.975L69.8089 324.15L86.3089 348.525C86.4089 348.675 86.4589 348.825 86.4589 348.975C86.5089 349.125 86.5339 349.275 86.5339 349.425C86.5339 349.825 86.3839 350.2 86.0839 350.55C85.7839 350.85 85.4089 351 84.9589 351H73.7839C73.0339 351 72.4339 350.825 71.9839 350.475C71.5839 350.075 71.3089 349.75 71.1589 349.5L61.1839 335.1L51.4339 349.5C51.2839 349.75 51.0089 350.075 50.6089 350.475C50.2089 350.825 49.6339 351 48.8839 351H38.0839Z" fill="#009CCD"/>
<path d="M168.084 87C167.634 87 167.234 86.85 166.884 86.55C166.584 86.2 166.434 85.825 166.434 85.425C166.434 85.275 166.459 85.125 166.509 84.975C166.559 84.825 166.634 84.675 166.734 84.525L183.084 60.225L167.934 36.975C167.784 36.675 167.709 36.375 167.709 36.075C167.709 35.675 167.859 35.325 168.159 35.025C168.459 34.675 168.834 34.5 169.284 34.5H180.159C180.909 34.5 181.484 34.7 181.884 35.1C182.284 35.45 182.559 35.775 182.709 36.075L191.709 49.725L200.784 36.075C200.984 35.775 201.284 35.45 201.684 35.1C202.084 34.7 202.659 34.5 203.409 34.5H213.684C214.134 34.5 214.509 34.675 214.809 35.025C215.159 35.325 215.334 35.675 215.334 36.075C215.334 36.425 215.234 36.725 215.034 36.975L199.809 60.15L216.309 84.525C216.409 84.675 216.459 84.825 216.459 84.975C216.509 85.125 216.534 85.275 216.534 85.425C216.534 85.825 216.384 86.2 216.084 86.55C215.784 86.85 215.409 87 214.959 87H203.784C203.034 87 202.434 86.825 201.984 86.475C201.584 86.075 201.309 85.75 201.159 85.5L191.184 71.1L181.434 85.5C181.284 85.75 181.009 86.075 180.609 86.475C180.209 86.825 179.634 87 178.884 87H168.084Z" fill="#009CCD"/>
</svg>
