<svg viewBox="0 0 51 53" fill="none" xmlns="http://www.w3.org/2000/svg">
<path d="M2.08389 53C1.63389 53 1.23389 52.85 0.883887 52.55C0.583887 52.2 0.433887 51.825 0.433887 51.425C0.433887 51.275 0.458887 51.125 0.508887 50.975C0.558887 50.825 0.633887 50.675 0.733887 50.525L17.0839 26.225L1.93389 2.975C1.78389 2.675 1.70889 2.375 1.70889 2.075C1.70889 1.675 1.85889 1.325 2.15889 1.025C2.45889 0.674997 2.83389 0.499996 3.28389 0.499996H14.1589C14.9089 0.499996 15.4839 0.699997 15.8839 1.1C16.2839 1.45 16.5589 1.775 16.7089 2.075L25.7089 15.725L34.7839 2.075C34.9839 1.775 35.2839 1.45 35.6839 1.1C36.0839 0.699997 36.6589 0.499996 37.4089 0.499996H47.6839C48.1339 0.499996 48.5089 0.674997 48.8089 1.025C49.1589 1.325 49.3339 1.675 49.3339 2.075C49.3339 2.425 49.2339 2.725 49.0339 2.975L33.8089 26.15L50.3089 50.525C50.4089 50.675 50.4589 50.825 50.4589 50.975C50.5089 51.125 50.5339 51.275 50.5339 51.425C50.5339 51.825 50.3839 52.2 50.0839 52.55C49.7839 52.85 49.4089 53 48.9589 53H37.7839C37.0339 53 36.4339 52.825 35.9839 52.475C35.5839 52.075 35.3089 51.75 35.1589 51.5L25.1839 37.1L15.4339 51.5C15.2839 51.75 15.0089 52.075 14.6089 52.475C14.2089 52.825 13.6339 53 12.8839 53H2.08389Z" fill="currentColor"/>
</svg>
